<?xml version="1.0" encoding="UTF-8" standalone="no"?>
<svg
   xmlns:dc="http://purl.org/dc/elements/1.1/"
   xmlns:cc="http://creativecommons.org/ns#"
   xmlns:rdf="http://www.w3.org/1999/02/22-rdf-syntax-ns#"
   xmlns:svg="http://www.w3.org/2000/svg"
   xmlns="http://www.w3.org/2000/svg"
   viewBox="0 0 426.66666 156"
   height="156"
   width="426.66666"
   xml:space="preserve"
   id="svg2"
   version="1.1"><metadata
     id="metadata8"><rdf:RDF><cc:Work
         rdf:about=""><dc:format>image/svg+xml</dc:format><dc:type
           rdf:resource="http://purl.org/dc/dcmitype/StillImage" /></cc:Work></rdf:RDF></metadata><defs
     id="defs6" /><g
     transform="matrix(1.3333333,0,0,-1.3333333,0,156)"
     id="g10"><g
       transform="scale(0.1)"
       id="g12"><path
         id="path14"
         style="fill:#0f233f;fill-opacity:1;fill-rule:evenodd;stroke:none"
         d="M 3200,20.3086 H 0 V 8.78906 H 3200 V 20.3086 M 2364.49,133.789 H 835.512 v 11.52 H 2364.49 v -11.52" /><path
         id="path16"
         style="fill:#1c3a6b;fill-opacity:1;fill-rule:evenodd;stroke:none"
         d="m 2055.51,965.309 c -34.03,-1.68 -74.18,-14.688 -120.51,-39.02 -46.33,-24.34 -93.98,-52.5 -143.01,-84.488 -48.98,-32 -94.33,-60.672 -135.97,-86.02 -36.37,-20.66 -68.52,-29.492 -96.53,-26.48 -28.32,3 -54.14,11.828 -77.5,26.48 43.67,21.68 87.35,46.367 131.02,74.02 43.67,27.66 88.67,55.668 135,83.988 46.33,28.359 95,54.332 145.97,78.012 52.04,22.649 98.36,33.509 139.03,32.499 40.66,-1.02 72.34,-12 95,-33.011 22.65,-21.328 32.81,-50.82 30.51,-88.48 -4.03,15.98 -14.34,30.312 -31.02,42.972 -16.33,12.699 -40.35,19.18 -71.99,19.528 m -911.02,-31.52 c 33.67,1.68 73.83,14.492 120.51,38.512 46.33,24.34 93.98,52.499 143.01,84.499 48.98,31.99 94.33,60.82 135.97,86.48 36.37,20.67 68.52,29.34 96.53,26.02 28.01,-3.01 53.67,-11.68 76.99,-26.02 -43.67,-21.64 -87.34,-46.33 -131.02,-73.98 -43.63,-27.66 -88.63,-55.82 -135,-84.499 -45.97,-28.352 -94.64,-54.18 -145.97,-77.5 -51.99,-23 -98.36,-34.02 -139.03,-33 -40.66,1.008 -72.3,12.148 -95,33.508 -22.65,20.98 -32.81,50.472 -30.46,88.48 4.33,-15.98 14.64,-30.309 30.97,-43.008 16.68,-12.972 40.86,-19.492 72.5,-19.492 m 1106.99,13.512 c -0.97,15 -3.16,28.988 -6.48,42 -13.32,49.649 -37.5,88.319 -72.5,116.009 -35,27.97 -75.51,46.33 -121.48,55 -46.02,8.64 -92.04,9.14 -138.01,1.49 -54.69,-10 -108.01,-27.85 -160,-53.52 -51.99,-25.66 -101.53,-53.98 -148.52,-85 -11.64,-6.64 -22.81,-13.16 -33.47,-19.49 -46.02,-28.009 -89.54,-54.649 -130.51,-80.001 -41.33,-25.309 -81.84,-46.488 -121.53,-63.48 -39.64,-16.68 -80.31,-26.168 -121.99,-28.508 -43.98,-1.68 -82.15,4.648 -114.49,18.98 -32.34,14.688 -56.17,35.199 -71.48,61.52 -15.36,26.328 -19.692,56.179 -13.008,89.499 9.328,37.34 23.978,65 43.978,83 20,18.01 42.19,28.83 66.53,32.5 24.33,3.99 47.14,3.48 68.47,-1.52 -10.97,-2.97 -20,-8.83 -26.99,-17.5 -7.34,-8.32 -11.17,-18.48 -11.48,-30.47 0.31,-14.33 5.15,-26.52 14.49,-36.52 9.65,-9.65 21.64,-14.84 35.97,-15.51 14.34,0.35 26.53,5.2 36.53,14.53 9.65,9.65 14.84,21.64 15.51,35.98 -0.36,3.36 -0.86,6.99 -1.53,11.01 -0.97,3.99 -1.48,5.98 -1.48,5.98 0,6.02 -5.35,14.84 -16.02,26.52 -10.31,12 -29.65,22.82 -58.01,32.5 -21.32,4.65 -46.32,3.99 -75,-1.99 -28.98,-6.36 -56.32,-20 -81.99,-41.01 -25.31,-21.02 -43.47,-51.68 -54.49,-92 -4.34,-18.671 -5.512,-38.671 -3.52,-59.999 H 0 V 205.309 H 38.0117 V 860.781 H 973.012 c 19.328,-36.64 45.968,-65.16 79.998,-85.472 33.67,-20.348 70.97,-33.508 111.99,-39.528 41.02,-5.98 81.68,-5.66 121.99,1.02 54.69,10 108.01,27.847 160,53.508 51.99,25.671 101.53,54.14 148.52,85.472 v -0.472 c 11.64,6.64 22.81,13.32 33.47,20 46.02,27.66 89.54,54.339 130.51,80 41.33,25.311 81.84,46.331 121.53,62.971 39.64,17.03 80.31,26.52 121.99,28.52 43.98,1.99 82.15,-4.34 114.49,-18.99 32.34,-14.69 56.17,-35.19 71.48,-61.521 15.36,-26.328 19.69,-55.98 13.01,-88.988 -8.67,-36.012 -22.5,-63 -41.48,-81.012 -19.34,-18.008 -40.51,-29.34 -63.52,-33.988 -23.32,-4.332 -45.51,-4.492 -66.48,-0.5 9.33,3.98 16.83,10 22.5,18 5.66,8.32 8.67,17.82 8.98,28.48 -0.31,14.34 -5.15,26.367 -14.49,36.02 -9.65,9.648 -21.68,14.84 -36.02,15.5 -14.33,0 -26.48,-4.84 -36.48,-14.492 -9.65,-9.329 -14.84,-21.36 -15.51,-36.008 0.35,-5 1.33,-9.852 3.01,-14.5 -0.35,0.32 -0.51,0.508 -0.51,0.508 0.35,-1.36 0.67,-2.848 1.02,-4.528 0.66,-0.98 1.17,-1.832 1.48,-2.5 2.35,-6.992 9.03,-15.472 20,-25.472 10.67,-9.688 27.85,-18.508 51.53,-26.52 19.33,-3.988 41.83,-3.668 67.5,1.012 25.97,4.648 51.13,15.16 75.46,31.488 24.34,16.68 43.68,40.66 58.01,71.992 h 925 V 205.309 H 3200 v 741.992 h -948.52" /><path
         id="path18"
         style="fill:#1c3a6b;fill-opacity:1;fill-rule:evenodd;stroke:none"
         d="m 190.941,571.719 36.09,5.043 V 463.051 c 9.809,0 18.239,2.07 25.27,6.168 7.039,4.14 12.777,9.41 17.23,15.902 4.449,6.438 7.739,13.75 9.848,21.91 2.101,8.129 3.199,16.207 3.199,24.219 0,7.148 -0.738,14.531 -2.187,22.109 -1.442,7.582 -4.532,14.532 -9.219,20.903 -4.652,6.328 -11.371,11.597 -20.043,15.699 -8.707,4.141 -20.309,6.211 -34.801,6.211 -9.808,0 -19.058,-1.524 -27.738,-4.531 -8.711,-3.012 -16.25,-7.34 -22.57,-13.051 -6.372,-5.699 -11.372,-12.692 -15.079,-21.051 -3.671,-8.359 -5.511,-18.008 -5.511,-28.949 0,-6.91 0.55,-12.692 1.679,-17.379 1.09,-4.691 2.461,-8.59 4.02,-11.723 1.57,-3.117 3.133,-5.508 4.691,-7.187 1.559,-1.68 2.77,-2.852 3.668,-3.512 -12.5,0 -22.297,3.121 -29.449,9.371 -7.109,6.25 -10.699,16.61 -10.699,31.102 0,10.699 2.808,20.777 8.359,30.269 5.582,9.489 13.039,17.848 22.422,25.078 9.367,7.27 20.188,13.012 32.457,17.231 12.223,4.25 25.192,6.359 38.793,6.359 14.68,0 27.848,-1.828 39.449,-5.539 11.602,-3.68 21.289,-8.789 29.102,-15.359 7.808,-6.602 13.75,-14.211 17.887,-22.922 4.14,-8.68 6.171,-18.051 6.171,-28.09 0,-9.379 -1.64,-19.019 -5,-28.949 -3.359,-9.918 -8.359,-18.86 -15.031,-26.91 -6.719,-8.008 -15,-14.649 -24.929,-19.879 -9.918,-5.281 -21.481,-7.891 -34.61,-7.891 h -7.379 v -95.32 h -36.09 z M 408.629,524.57 h 33.48 V 410.859 c 0,-2.23 0.121,-5 0.313,-8.359 0.238,-3.359 0.859,-6.641 1.84,-9.84 1.008,-3.25 2.539,-6.058 4.527,-8.398 1.992,-2.313 4.801,-3.481 8.359,-3.481 10.942,0 18.942,12.149 24.063,36.449 h 12.379 c -2.461,-14.07 -5.539,-25.16 -9.328,-33.281 -3.832,-8.129 -7.813,-14.34 -12.071,-18.558 -4.222,-4.262 -8.562,-6.993 -13.05,-8.2 -4.45,-1.211 -8.481,-1.839 -12.032,-1.839 -5.121,0 -9.531,0.898 -13.199,2.66 -3.68,1.789 -6.801,4.136 -9.379,7.027 -2.543,2.891 -4.609,6.25 -6.172,10.039 -1.558,3.793 -2.808,7.813 -3.668,12.031 -3.363,-8.668 -8.75,-16.168 -16.25,-22.379 -7.461,-6.25 -16.531,-9.378 -27.23,-9.378 -6.723,0 -13.441,1.328 -20.231,4.027 -6.839,2.652 -12.968,7.07 -18.402,13.199 -5.469,6.133 -9.918,14.024 -13.398,23.75 -3.442,9.692 -5.2,21.563 -5.2,35.621 0,10.242 1.18,20.942 3.52,32.11 2.34,11.14 6.09,21.293 11.211,30.429 5.117,9.141 11.719,16.723 19.73,22.742 8.039,6.008 17.731,9.02 29.098,9.02 2.691,0 5.512,-0.27 8.551,-0.82 3.012,-0.59 5.898,-1.52 8.68,-2.852 2.808,-1.328 5.429,-3.168 7.851,-5.508 2.457,-2.34 4.488,-5.191 6.008,-8.55 z M 379.57,380.781 c 3.321,0 6.719,0.938 10.2,2.809 3.429,1.922 6.558,4.461 9.332,7.699 2.808,3.242 5.078,7.07 6.878,11.563 1.79,4.449 2.649,9.257 2.649,14.378 v 76.25 c -1.52,3.551 -3.938,6.829 -7.18,9.879 -3.211,3.012 -7.39,4.493 -12.539,4.493 -7.109,0 -13.25,-2.383 -18.398,-7.192 -5.121,-4.801 -9.223,-10.82 -12.352,-18.039 -3.121,-7.269 -5.43,-15.16 -6.871,-23.75 -1.449,-8.601 -2.187,-16.801 -2.187,-24.609 0,-19.141 2.66,-32.852 7.886,-41.141 5.242,-8.242 12.742,-12.34 22.582,-12.34 z m 177.231,92.617 c 1.789,1.563 3.199,4.063 4.219,7.543 0.968,3.438 1.48,6.758 1.48,9.84 0,5.16 -1.602,9.379 -4.84,12.739 -3.25,3.32 -7.738,5 -13.558,5 -6.012,0 -11.012,-2.231 -15.043,-6.68 -4.02,-4.461 -7.258,-10.078 -9.68,-16.879 -2.469,-6.801 -4.18,-14.41 -5.199,-22.77 -1.02,-8.363 -1.52,-16.531 -1.52,-24.57 0,-11.801 1.051,-21.41 3.199,-28.75 2.11,-7.391 4.961,-13.133 8.52,-17.23 3.551,-4.141 7.73,-6.993 12.531,-8.551 4.809,-1.531 9.891,-2.309 15.238,-2.309 11.801,0 21.801,2.93 29.922,8.828 8.129,5.942 15.121,15.121 20.899,27.621 h 11.371 c -2.66,-8.25 -6.449,-16.14 -11.371,-23.601 -4.918,-7.457 -10.59,-14.02 -17.071,-19.719 -6.449,-5.711 -13.476,-10.199 -21.058,-13.558 -7.57,-3.321 -15.5,-5 -23.75,-5 -7.809,0 -15.5,1.328 -23.078,4.027 -7.582,2.652 -14.383,7.07 -20.391,13.199 -6.019,6.133 -10.941,14.141 -14.73,24.063 -3.789,9.918 -5.661,22.148 -5.661,36.64 0,9.379 0.821,19.449 2.5,30.27 1.68,10.828 4.801,20.828 9.372,30.078 4.57,9.262 10.859,16.992 18.867,23.25 8.051,6.242 18.402,9.371 31.133,9.371 14.019,0 24.726,-3.398 32.109,-10.199 7.34,-6.789 11.019,-16.789 11.019,-29.922 0,-5.578 -1.058,-10.27 -3.171,-14.059 -2.11,-3.789 -5.43,-5.699 -9.879,-5.699 -4.879,0 -9.02,2.34 -12.379,7.027 z m 46.168,51.172 H 636.41 V 410.859 c 0,-2.23 0.11,-5 0.352,-8.359 0.226,-3.359 0.816,-6.641 1.828,-9.84 1.019,-3.25 2.5,-6.058 4.531,-8.398 2,-2.313 4.77,-3.481 8.359,-3.481 10.899,0 18.95,12.149 24.071,36.449 h 12.379 c -2.461,-14.07 -5.59,-25.16 -9.379,-33.281 -3.781,-8.129 -7.813,-14.34 -12.031,-18.558 -4.25,-4.262 -8.59,-6.993 -13.04,-8.2 -4.46,-1.211 -8.48,-1.839 -12.031,-1.839 -7.82,0 -14.179,1.488 -19.07,4.488 -4.918,3.012 -8.828,6.879 -11.719,11.57 -2.89,4.68 -4.922,9.918 -6.012,15.699 -1.128,5.821 -1.679,11.371 -1.679,16.719 z m -6.02,48.16 c 0,6.02 2.11,11.25 6.371,15.75 4.219,4.45 9.45,6.68 15.7,6.68 6.019,0 11.25,-2.23 15.71,-6.68 4.489,-4.5 6.719,-9.73 6.719,-15.75 0,-6.25 -2.23,-11.48 -6.719,-15.699 -4.46,-4.261 -9.691,-6.371 -15.71,-6.371 -6.25,0 -11.481,2.11 -15.7,6.371 -4.261,4.219 -6.371,9.449 -6.371,15.699 z M 708.672,540.621 V 524.57 h 27.066 V 512.891 H 708.672 V 330.59 c 0,-11.801 -1.172,-21.41 -3.512,-28.75 -2.351,-7.352 -5.43,-13.168 -9.219,-17.391 -3.793,-4.25 -8.171,-7.109 -13.211,-8.551 -5,-1.449 -10.308,-2.148 -15.89,-2.148 -12.039,0 -20.899,2.77 -26.57,8.359 -5.7,5.551 -8.551,13.59 -8.551,24.063 0,5.59 1.293,10.707 3.871,15.387 2.531,4.691 5.89,8.992 10.031,12.89 4.109,3.91 8.758,7.352 13.867,10.352 5.121,3.008 10.352,5.629 15.711,7.859 V 550 c 0,19.41 4.571,33.949 13.75,43.629 9.141,9.73 20.821,14.57 35.11,14.57 6.679,0 12.82,-1.008 18.363,-3 5.59,-2.039 10.508,-5.16 14.726,-9.379 4.262,-4.218 7.543,-9.492 9.883,-15.699 2.348,-6.25 3.52,-13.641 3.52,-22.109 H 757.5 c -1.371,8.937 -3.75,15.968 -7.191,21.09 -3.469,5.117 -9.219,7.699 -17.219,7.699 -5.36,0 -9.61,-1.18 -12.738,-3.52 -3.122,-2.34 -5.551,-5.511 -7.34,-9.531 -1.801,-4.02 -2.973,-8.871 -3.524,-14.57 -0.539,-5.66 -0.816,-11.879 -0.816,-18.559 z M 660.16,291.129 c 6.481,0 10.578,3.441 12.379,10.351 1.801,6.918 2.66,16.411 2.66,28.442 v 10.387 c -10,-4.918 -17.578,-10.27 -22.738,-16.047 -5.121,-5.821 -7.691,-11.492 -7.691,-17.071 0,-4.461 1.441,-8.242 4.371,-11.371 2.89,-3.121 6.558,-4.691 11.019,-4.691 z m 95.309,233.441 h 33.48 V 410.859 c 0,-2.23 0.071,-5 0.313,-8.359 0.226,-3.359 0.859,-6.641 1.828,-9.84 1.019,-3.25 2.5,-6.058 4.531,-8.398 2,-2.313 4.809,-3.481 8.359,-3.481 10.942,0 18.95,12.149 24.071,36.449 h 12.379 c -2.461,-14.07 -5.59,-25.16 -9.379,-33.281 -3.781,-8.129 -7.77,-14.34 -12.031,-18.558 -4.219,-4.262 -8.59,-6.993 -13.04,-8.2 -4.46,-1.211 -8.48,-1.839 -12.031,-1.839 -7.82,0 -14.148,1.488 -19.07,4.488 -4.918,3.012 -8.828,6.879 -11.719,11.57 -2.89,4.68 -4.879,9.918 -6.012,15.699 -1.097,5.821 -1.679,11.371 -1.679,16.719 z m -6.02,48.16 c 0,6.02 2.11,11.25 6.371,15.75 4.219,4.45 9.489,6.68 15.7,6.68 6.019,0 11.289,-2.23 15.75,-6.68 4.449,-4.5 6.679,-9.73 6.679,-15.75 0,-6.25 -2.23,-11.48 -6.679,-15.699 -4.461,-4.261 -9.731,-6.371 -15.75,-6.371 -6.211,0 -11.481,2.11 -15.7,6.371 -4.261,4.219 -6.371,9.449 -6.371,15.699 z m 154.18,-99.332 c 1.801,1.563 3.211,4.063 4.18,7.543 1.019,3.438 1.531,6.758 1.531,9.84 0,5.16 -1.61,9.379 -4.852,12.739 -3.238,3.32 -7.769,5 -13.547,5 -6.019,0 -11.062,-2.231 -15.043,-6.68 -4.019,-4.461 -7.269,-10.078 -9.726,-16.879 -2.422,-6.801 -4.184,-14.41 -5.152,-22.77 -1.02,-8.363 -1.532,-16.531 -1.532,-24.57 0,-11.801 1.063,-21.41 3.172,-28.75 2.141,-7.391 5,-13.133 8.551,-17.23 3.559,-4.141 7.738,-6.993 12.539,-8.551 4.801,-1.531 9.84,-2.309 15.199,-2.309 11.832,0 21.789,2.93 29.961,8.828 8.121,5.942 15.11,15.121 20.891,27.621 h 11.371 c -2.652,-8.25 -6.481,-16.14 -11.371,-23.601 -4.922,-7.457 -10.582,-14.02 -17.071,-19.719 -6.441,-5.711 -13.468,-10.199 -21.05,-13.558 -7.578,-3.321 -15.508,-5 -23.75,-5 -7.809,0 -15.508,1.328 -23.09,4.027 -7.57,2.652 -14.371,7.07 -20.391,13.199 -6.008,6.133 -10.929,14.141 -14.719,24.063 -3.789,9.918 -5.671,22.148 -5.671,36.64 0,9.379 0.82,19.449 2.5,30.27 1.679,10.828 4.812,20.828 9.382,30.078 4.571,9.262 10.86,16.992 18.86,23.25 8.051,6.242 18.398,9.371 31.14,9.371 14.02,0 24.719,-3.398 32.11,-10.199 7.34,-6.789 11.008,-16.789 11.008,-29.922 0,-5.578 -1.047,-10.27 -3.161,-14.059 -2.109,-3.789 -5.429,-5.699 -9.878,-5.699 -4.891,0 -9.032,2.34 -12.391,7.027 z m 282.621,123.75 36.48,10.391 V 357.34 h -36.48 v 125.781 h -72.23 V 357.34 h -36.44 v 233.129 c -12.27,-4.918 -21.92,-12.77 -28.95,-23.59 -7.03,-10.789 -10.54,-23.68 -10.54,-38.641 0,-7.769 0.5,-14.019 1.52,-18.707 1.01,-4.691 2.27,-8.48 3.83,-11.371 1.56,-2.89 3.24,-5.039 5.04,-6.359 1.75,-1.332 3.43,-2.352 5,-3.012 -5.78,0 -11.21,0.742 -16.21,2.191 -5.04,1.442 -9.38,3.821 -13.05,7.18 -3.67,3.32 -6.64,7.621 -8.87,12.86 -2.23,5.269 -3.36,11.679 -3.36,19.25 0,10.468 2.46,20.468 7.39,29.929 4.88,9.492 11.48,17.77 19.72,24.922 8.24,7.149 17.66,12.77 28.24,16.867 10.63,4.141 21.61,6.211 32.97,6.211 2.46,0 4.81,-0.078 7.03,-0.187 2.23,-0.082 4.46,-0.282 6.68,-0.473 V 502.852 h 72.23 z m 157.19,-72.578 h 33.47 V 410.859 c 0,-2.23 0.12,-5 0.32,-8.359 0.23,-3.359 0.86,-6.641 1.83,-9.84 1.02,-3.25 2.54,-6.058 4.53,-8.398 2,-2.313 4.81,-3.481 8.36,-3.481 10.94,0 18.95,12.149 24.07,36.449 h 12.38 c -2.46,-14.07 -5.55,-25.16 -9.38,-33.281 -3.79,-8.129 -7.77,-14.34 -12.03,-18.558 -4.22,-4.262 -8.59,-6.993 -13.04,-8.2 -4.46,-1.211 -8.48,-1.839 -12.04,-1.839 -5.11,0 -9.53,0.898 -13.2,2.66 -3.67,1.789 -6.8,4.136 -9.37,7.027 -2.54,2.891 -4.61,6.25 -6.18,10.039 -1.56,3.793 -2.81,7.813 -3.67,12.031 -3.36,-8.668 -8.75,-16.168 -16.25,-22.379 -7.46,-6.25 -16.56,-9.378 -27.22,-9.378 -6.72,0 -13.44,1.328 -20.24,4.027 -6.83,2.652 -12.97,7.07 -18.4,13.199 -5.47,6.133 -9.92,14.024 -13.4,23.75 -3.43,9.692 -5.19,21.563 -5.19,35.621 0,10.242 1.17,20.942 3.51,32.11 2.35,11.14 6.1,21.293 11.22,30.429 5.11,9.141 11.71,16.723 19.72,22.742 8.05,6.008 17.74,9.02 29.1,9.02 2.7,0 5.51,-0.27 8.56,-0.82 3.01,-0.59 5.9,-1.52 8.67,-2.852 2.77,-1.328 5.43,-3.168 7.85,-5.508 2.46,-2.34 4.49,-5.191 6.02,-8.55 z m -29.06,-143.789 c 3.32,0 6.71,0.938 10.19,2.809 3.44,1.922 6.56,4.461 9.34,7.699 2.81,3.242 5.07,7.07 6.87,11.563 1.8,4.449 2.66,9.257 2.66,14.378 v 76.25 c -1.53,3.551 -3.95,6.829 -7.19,9.879 -3.2,3.012 -7.38,4.493 -12.54,4.493 -7.11,0 -13.24,-2.383 -18.4,-7.192 -5.11,-4.801 -9.22,-10.82 -12.34,-18.039 -3.13,-7.269 -5.43,-15.16 -6.88,-23.75 -1.44,-8.601 -2.18,-16.801 -2.18,-24.609 0,-19.141 2.61,-32.852 7.89,-41.141 5.23,-8.242 12.73,-12.34 22.58,-12.34 z M 1415.7,524.57 h 33.44 v -28.09 c 2.7,4.032 5.31,7.821 7.85,11.372 2.58,3.558 5.43,6.679 8.56,9.378 3.12,2.649 6.56,4.84 10.35,6.52 3.79,1.68 8.05,2.5 12.69,2.5 7.58,0 13.17,-1.949 16.76,-5.859 3.56,-3.911 5.31,-8.629 5.31,-14.219 0,-3.32 -0.54,-6.133 -1.64,-8.363 -1.13,-2.219 -2.46,-3.981 -4.02,-5.348 -1.56,-1.332 -3.24,-2.262 -5,-2.813 -1.8,-0.589 -3.36,-0.859 -4.69,-0.859 -2.03,0 -3.63,0.473 -4.88,1.332 -1.21,0.899 -2.42,1.828 -3.67,2.848 -1.21,1.011 -2.62,1.953 -4.18,2.851 -1.56,0.899 -3.56,1.328 -6.02,1.328 -5.11,0 -10.04,-1.796 -14.72,-5.347 -4.65,-3.563 -8.91,-7.352 -12.7,-11.371 V 357.34 h -33.44 z m 220.08,-54.492 c 0,-12.738 -1.05,-25.816 -3.2,-39.297 -2.11,-13.511 -5.63,-25.82 -10.51,-36.992 -4.92,-11.129 -11.29,-20.309 -19.06,-27.578 -7.81,-7.231 -17.5,-10.859 -29.1,-10.859 -5.82,0 -11.45,1.019 -16.92,3.007 -5.47,1.993 -10.35,4.879 -14.69,8.711 -4.37,3.789 -7.81,8.551 -10.39,14.379 -2.53,5.781 -3.82,12.34 -3.82,19.723 V 524.57 h 33.43 V 410.859 c 0,-3.789 0.24,-7.461 0.67,-11.019 0.43,-3.59 1.4,-6.75 2.85,-9.531 1.44,-2.809 3.44,-5.079 6.01,-6.868 2.58,-1.8 5.86,-2.66 9.89,-2.66 6.87,0 12.69,2.5 17.38,7.5 4.69,5.039 8.52,11.559 11.52,19.571 3.01,8.046 5.2,16.988 6.53,26.918 1.33,9.921 1.99,19.8 1.99,29.609 0,6.242 -0.2,12.422 -0.66,18.551 -0.43,6.129 -1.22,11.679 -2.35,16.558 -1.09,-1.09 -2.54,-1.828 -4.33,-2.187 -1.8,-0.313 -3.25,-0.461 -4.34,-0.461 -5.35,0 -9.38,1.871 -12.03,5.66 -2.7,3.789 -4.03,7.809 -4.03,12.031 0,4.489 1.45,8.438 4.34,11.879 2.89,3.469 7.15,5.192 12.7,5.192 3.82,0 7.42,-1.09 10.89,-3.364 3.44,-2.218 6.45,-5.738 9.03,-10.508 2.58,-4.8 4.57,-11.089 6.01,-18.902 1.45,-7.808 2.19,-17.379 2.19,-28.75 z m 130.43,12.692 c 0,-15.622 -6.41,-28.629 -19.22,-39.141 -12.85,-10.469 -30.62,-16.949 -53.36,-19.367 0.9,-8.953 2.5,-16.172 4.85,-21.762 2.34,-5.59 5.19,-9.961 8.51,-13.199 3.36,-3.25 7.23,-5.473 11.56,-6.68 4.34,-1.25 8.87,-1.84 13.56,-1.84 10.7,0 20.7,2.77 30.08,8.36 9.37,5.55 16.95,14.918 22.73,28.089 h 10.7 c -2.89,-8.25 -6.91,-16.14 -12.03,-23.601 -5.11,-7.457 -11.13,-14.02 -18.04,-19.719 -6.92,-5.711 -14.38,-10.199 -22.43,-13.558 -8,-3.321 -16.28,-5 -24.72,-5 -7.81,0 -15.35,1.328 -22.58,4.027 -7.27,2.652 -13.67,7.07 -19.26,13.199 -5.54,6.133 -10.08,14.102 -13.51,23.902 -3.48,9.809 -5.2,21.84 -5.2,36.141 0,9.328 1.06,19.488 3.17,30.43 2.1,10.929 5.7,21.051 10.7,30.429 5.04,9.372 11.6,17.141 19.73,23.399 8.16,6.242 18.24,9.371 30.27,9.371 5.58,0 10.98,-0.629 16.21,-1.84 5.27,-1.211 10,-3.469 14.22,-6.68 4.26,-3.242 7.65,-7.652 10.19,-13.199 2.58,-5.582 3.87,-12.851 3.87,-21.761 z m -72.93,-45.469 c 15.86,2.429 28.4,8.008 37.66,16.719 9.26,8.679 13.86,19.378 13.86,32.109 0,8.48 -1.44,14.531 -4.33,18.211 -2.93,3.672 -7.03,5.539 -12.38,5.539 -5.82,0 -10.86,-2.258 -15.24,-6.719 -4.33,-4.449 -7.97,-10.191 -10.86,-17.219 -2.89,-6.992 -5.08,-14.812 -6.52,-23.402 -1.45,-8.59 -2.19,-16.988 -2.19,-25.238 z m 206.06,-20.071 h 14.02 c -6.45,-8.91 -13.09,-16.332 -19.88,-22.269 -6.8,-5.902 -13.44,-11.09 -19.93,-15.551 -2.42,-4.449 -5.54,-8.16 -9.33,-11.211 -3.79,-3 -7.89,-5.429 -12.23,-7.34 -4.33,-1.879 -8.71,-3.281 -13.04,-4.179 -4.34,-0.899 -8.29,-1.328 -11.88,-1.328 -9.8,0 -17.89,1.558 -24.26,4.687 -6.33,3.121 -11.4,7.07 -15.19,11.871 -3.79,4.77 -6.49,10.121 -8.05,16.059 -1.56,5.902 -2.34,11.519 -2.34,16.871 0,5.781 1.17,10.859 3.51,15.238 2.35,4.332 5.2,7.383 8.56,9.184 5.78,16.718 11.48,33.277 17.03,49.687 5.58,16.36 9.26,32.813 11.05,49.289 l 33.79,6.723 c 5.35,-21.211 9.73,-38.481 13.21,-51.84 3.43,-13.391 6.24,-24.723 8.35,-33.98 2.11,-9.219 3.68,-17.379 4.69,-24.411 0.98,-7 1.49,-14.769 1.49,-23.25 3.79,2.469 7.38,5.079 10.7,7.899 3.36,2.769 6.6,5.391 9.73,7.851 z m -55.86,-13.402 c 0,6.91 -0.39,13.051 -1.18,18.402 -0.78,5.348 -1.95,11.29 -3.51,17.731 -1.56,6.488 -3.52,14.34 -5.86,23.59 -2.34,9.258 -5.08,21.14 -8.2,35.629 -1.33,-12.5 -4.07,-24.45 -8.17,-35.821 -4.14,-11.371 -7.89,-23.05 -11.21,-35.121 1.99,-1.328 3.71,-3.16 5.16,-5.508 1.44,-2.339 2.19,-5.39 2.19,-9.179 0,-4.25 -1.1,-7.5 -3.36,-9.723 -2.23,-2.226 -4.65,-3.316 -7.35,-3.316 -3.55,0 -6.56,1.558 -9.02,4.687 1.8,-7.82 4.88,-13.91 9.37,-18.25 4.46,-4.328 10.36,-6.519 17.7,-6.519 7.15,0 12.85,1.84 17.07,5.511 4.26,3.668 6.37,9.649 6.37,17.887 z m 55.86,166.91 33.43,4.692 v -50.86 h 25.75 v -11.679 h -25.75 V 410.859 c 0,-2.66 0.12,-5.738 0.32,-9.179 0.23,-3.481 0.86,-6.758 1.83,-9.879 1.02,-3.129 2.58,-5.75 4.69,-7.852 2.15,-2.109 5.08,-3.168 8.87,-3.168 6.01,0 11.75,3.008 17.22,9.02 5.47,6.019 9.77,15.16 12.89,27.429 h 12.39 c -3.79,-14.07 -7.89,-25.16 -12.23,-33.281 -4.34,-8.129 -8.87,-14.34 -13.55,-18.558 -4.69,-4.262 -9.3,-6.993 -13.87,-8.2 -4.57,-1.211 -8.75,-1.839 -12.54,-1.839 -8.05,0 -14.61,1.488 -19.73,4.488 -5.15,3.012 -9.14,6.879 -12.03,11.57 -2.93,4.68 -4.92,9.84 -6.05,15.539 -1.1,5.711 -1.64,11.332 -1.64,16.879 v 109.063 h -11.37 v 11.679 h 11.37 z m 288.94,-73.238 32.46,-0.352 V 371.41 c 0,-12.93 -1.33,-24.531 -4.02,-34.808 -2.66,-10.231 -6.76,-18.981 -12.19,-26.25 -5.47,-7.231 -12.5,-12.774 -21.09,-16.563 -8.6,-3.789 -18.91,-5.668 -30.94,-5.668 -11.13,0 -20.47,1.57 -27.93,4.688 -7.46,3.132 -13.44,7.113 -17.89,12.031 -4.45,4.93 -7.58,10.43 -9.38,16.57 -1.75,6.129 -2.65,12.07 -2.65,17.891 0,4.879 0.62,9.758 1.83,14.527 1.22,4.801 3.36,9.141 6.37,13.051 3.01,3.902 6.99,7.07 12.03,9.531 5,2.461 11.21,3.668 18.56,3.668 8.9,0 16.29,-1.957 22.07,-5.816 5.82,-3.91 8.71,-9.774 8.71,-17.582 0,-1.09 -0.12,-2.5 -0.35,-4.18 -0.2,-1.68 -0.67,-3.398 -1.33,-5.199 -3.79,4.258 -7.66,6.879 -11.52,7.898 -3.91,0.973 -7.11,1.481 -9.54,1.481 -7.81,0 -13.51,-2.11 -17.07,-6.371 -3.55,-4.219 -5.35,-9.571 -5.35,-16.047 0,-4.653 0.9,-9.063 2.66,-13.211 1.8,-4.102 4.18,-7.61 7.19,-10.5 3.04,-2.93 6.6,-5.199 10.7,-6.879 4.14,-1.684 8.44,-2.5 12.89,-2.5 3.79,0 7.58,0.707 11.37,2.148 3.79,1.481 7.18,3.871 10.19,7.231 3.01,3.32 5.47,7.89 7.39,13.711 1.87,5.777 2.81,13.008 2.81,21.718 v 79.61 c -5.78,-10.711 -13.48,-18.68 -23.05,-23.91 -9.61,-5.231 -20.51,-7.891 -32.77,-7.891 -12.27,0 -23.48,2.539 -33.64,7.539 -10.15,5.043 -18.9,12.031 -26.25,21.094 -7.34,9.027 -13.04,19.918 -17.07,32.777 -3.98,12.813 -6.01,27.141 -6.01,42.961 0,14.731 1.91,28.75 5.7,42.149 3.79,13.363 9.81,25.121 18.05,35.281 8.24,10.148 18.75,18.238 31.44,24.25 12.7,6.019 27.97,9.031 45.82,9.031 8.01,0 16.06,-0.75 24.07,-2.191 8.04,-1.45 15.35,-4.02 21.91,-7.7 6.6,-3.671 11.95,-8.628 16.06,-14.878 4.14,-6.25 6.21,-14.141 6.21,-23.75 0,-2.891 -0.28,-5.942 -0.86,-9.18 -0.55,-3.242 -1.6,-6.25 -3.17,-9.024 -1.56,-2.808 -3.75,-5.078 -6.52,-6.878 -2.77,-1.75 -6.52,-2.649 -11.21,-2.649 -4.02,0 -7.42,0.699 -10.2,2.149 -2.77,1.441 -6.52,3.628 -11.21,6.519 0.47,0 1.45,0.352 3.01,1.012 1.56,0.668 3.2,1.84 4.84,3.519 1.68,1.68 3.21,4.059 4.54,7.192 1.32,3.117 1.99,7.148 1.99,12.027 0,10.941 -3.32,18.871 -10.04,23.75 -6.68,4.922 -14.92,7.383 -24.73,7.383 -10.94,0 -20.47,-2.731 -28.59,-8.203 -8.17,-5.469 -14.96,-12.66 -20.39,-21.559 -5.47,-8.949 -9.57,-19.18 -12.23,-30.789 -2.69,-11.601 -4.02,-23.43 -4.02,-35.461 0,-11.609 1.25,-22.461 3.67,-32.621 2.46,-10.117 5.94,-18.949 10.39,-26.41 4.45,-7.457 9.96,-13.32 16.56,-17.539 6.56,-4.25 13.99,-6.36 22.23,-6.36 14.73,0 26.21,6.95 34.45,20.891 8.24,13.949 13.28,33.719 15.04,59.379 z m 121.1,28.75 c 8.67,0 16.17,-1.328 22.38,-4.02 6.25,-2.66 11.36,-6.41 15.39,-11.21 4.02,-4.77 7.19,-10.399 9.53,-16.879 2.34,-6.442 4.06,-13.36 5.2,-20.743 h 1.99 c 9.37,0 17.97,1.911 25.78,5.704 7.77,3.789 14.49,8.597 20.04,14.378 l 5.04,-9.031 c -4.46,-7.148 -11.57,-13.039 -21.25,-17.73 -9.69,-4.688 -19.69,-7.93 -29.93,-9.688 0,-2.23 0.04,-4.453 0.16,-6.722 0.12,-2.219 0.16,-4.571 0.16,-6.989 0,-27.422 -5,-48.941 -15.04,-64.57 -10.04,-15.59 -24.06,-23.398 -42.15,-23.398 -7.34,0 -14.77,1.328 -22.23,4.027 -7.46,2.652 -14.22,7.101 -20.23,13.351 -6.02,6.25 -10.86,14.258 -14.57,24.11 -3.67,9.801 -5.51,21.949 -5.51,36.441 0,9.809 1.06,20.16 3.16,31.098 2.15,10.93 5.71,20.973 10.71,30.109 5.04,9.141 11.72,16.723 20.08,22.742 8.36,6.008 18.79,9.02 31.29,9.02 z m 3.32,-145.469 c 11.83,0 20.5,5.821 26.09,17.539 5.59,11.719 8.36,28.282 8.36,49.692 0,1.328 0,2.648 0,3.976 0,1.371 -0.12,2.703 -0.31,4.032 -6.49,0.429 -11.1,1.91 -13.91,4.332 -2.77,2.457 -4.18,6.597 -4.18,12.378 0,5.122 1.13,8.75 3.36,10.86 2.23,2.148 5.59,3.32 10.04,3.519 -2.7,7.813 -6.1,13.2 -10.2,16.25 -4.14,3.012 -8.75,4.493 -13.9,4.493 -6.92,0 -12.74,-2.262 -17.54,-6.832 -4.81,-4.571 -8.71,-10.43 -11.72,-17.579 -3.01,-7.152 -5.2,-15 -6.52,-23.601 -1.33,-8.551 -2,-16.988 -2,-25.231 0,-10.937 0.98,-19.839 3.01,-26.757 1.99,-6.911 4.57,-12.383 7.7,-16.372 3.12,-4.019 6.56,-6.832 10.35,-8.39 3.79,-1.531 7.58,-2.309 11.37,-2.309 z m 155.19,143.789 h 33.44 V 410.859 c 0,-2.23 0.12,-5 0.35,-8.359 0.23,-3.359 0.82,-6.641 1.84,-9.84 1.01,-3.25 2.5,-6.058 4.53,-8.398 1.99,-2.313 4.76,-3.481 8.36,-3.481 10.89,0 18.94,12.149 24.06,36.449 h 12.38 c -2.46,-14.07 -5.58,-25.16 -9.37,-33.281 -3.79,-8.129 -7.82,-14.34 -12.03,-18.558 -4.26,-4.262 -8.6,-6.993 -13.05,-8.2 -4.45,-1.211 -8.48,-1.839 -12.03,-1.839 -5.16,0 -9.53,0.898 -13.21,2.66 -3.71,1.789 -6.83,4.136 -9.37,7.027 -2.58,2.891 -4.65,6.25 -6.21,10.039 -1.56,3.793 -2.78,7.692 -3.67,11.723 -4.22,-10.942 -9.81,-18.91 -16.72,-23.949 -6.92,-5 -14.14,-7.5 -21.72,-7.5 -6.49,0 -12.62,0.898 -18.4,2.66 -5.82,1.789 -10.82,4.758 -15.08,8.867 -4.22,4.141 -7.58,9.492 -10,16.051 -2.46,6.601 -3.71,14.691 -3.71,24.261 V 524.57 h 33.48 V 410.859 c 0,-10.937 1.87,-18.668 5.66,-23.238 3.79,-4.57 8.6,-6.84 14.38,-6.84 3.12,0 6.25,0.821 9.37,2.5 3.13,1.68 5.9,4.059 8.36,7.188 2.46,3.121 4.45,6.91 6.02,11.371 1.56,4.449 2.34,9.57 2.34,15.39 z m 72.27,0 h 33.43 v -28.09 c 2.66,4.032 5.28,7.821 7.86,11.372 2.57,3.558 5.39,6.679 8.51,9.378 3.13,2.649 6.6,4.84 10.39,6.52 3.79,1.68 8.01,2.5 12.7,2.5 7.57,0 13.16,-1.949 16.72,-5.859 3.55,-3.911 5.35,-8.629 5.35,-14.219 0,-3.32 -0.55,-6.133 -1.68,-8.363 -1.1,-2.219 -2.42,-3.981 -3.99,-5.348 -1.56,-1.332 -3.24,-2.262 -5.04,-2.813 -1.75,-0.589 -3.32,-0.859 -4.68,-0.859 -2,0 -3.6,0.473 -4.85,1.332 -1.21,0.899 -2.46,1.828 -3.67,2.848 -1.21,1.011 -2.62,1.953 -4.18,2.851 -1.56,0.899 -3.55,1.328 -6.01,1.328 -5.12,0 -10.04,-1.796 -14.73,-5.347 -4.69,-3.563 -8.91,-7.352 -12.7,-11.371 V 357.34 h -33.43 z m 112.34,0 h 33.48 v -23.09 c 5.78,10.711 11.91,17.54 18.4,20.43 6.44,2.891 12.57,4.34 18.35,4.34 5.82,0 10.9,-0.781 15.24,-2.34 4.33,-1.57 8.08,-3.68 11.21,-6.371 3.12,-2.66 5.74,-5.777 7.85,-9.34 2.11,-3.59 3.83,-7.5 5.2,-11.719 3.12,6.68 6.32,12 9.68,15.899 3.36,3.91 6.68,6.922 10.04,9.031 3.36,2.11 6.64,3.43 9.85,4.02 3.24,0.55 6.21,0.82 8.86,0.82 10.04,0 18.13,-1.871 24.26,-5.66 6.13,-3.828 10.78,-8.68 13.87,-14.57 3.12,-5.899 5.19,-12.391 6.21,-19.418 1.02,-6.993 1.48,-13.75 1.48,-20.231 0,-3.992 -0.07,-8.402 -0.31,-13.211 -0.23,-4.762 -0.47,-9.68 -0.66,-14.68 -0.24,-5.039 -0.47,-10.039 -0.67,-15.082 -0.23,-5 -0.35,-9.648 -0.35,-13.867 0,-1.801 0.12,-4.301 0.35,-7.543 0.2,-3.238 0.78,-6.398 1.64,-9.527 0.9,-3.121 2.35,-5.859 4.38,-8.199 1.99,-2.313 4.88,-3.481 8.67,-3.481 5.16,0 9.77,2.891 13.91,8.668 4.1,5.821 7.5,15.039 10.19,27.781 h 12.39 c -2.47,-14.07 -5.59,-25.16 -9.38,-33.281 -3.79,-8.129 -7.81,-14.34 -12.03,-18.558 -4.26,-4.262 -8.48,-6.993 -12.73,-8.2 -4.22,-1.211 -8.13,-1.839 -11.68,-1.839 -7.15,0 -13.17,1.41 -18.09,4.179 -4.88,2.77 -8.91,6.52 -12.03,11.207 -3.13,4.692 -5.39,10.121 -6.88,16.371 -1.44,6.25 -2.15,12.731 -2.15,19.411 0,2 0.04,5.75 0.16,11.21 0.12,5.469 0.24,11.29 0.35,17.54 0.12,6.25 0.2,12.152 0.32,17.742 0.11,5.578 0.15,9.488 0.15,11.718 0,7.11 -0.55,13.04 -1.64,17.692 -1.13,4.687 -2.69,8.359 -4.69,11.058 -2.03,2.649 -4.29,4.571 -6.87,5.7 -2.54,1.09 -5.28,1.64 -8.17,1.64 -6.91,0 -12.57,-2.769 -16.91,-8.359 -4.34,-5.551 -7.42,-14.922 -9.18,-28.082 V 357.34 h -33.48 v 111.719 c 0,4.031 -0.15,7.929 -0.47,11.722 -0.35,3.789 -1.17,7.188 -2.53,10.199 -1.33,3 -3.21,5.391 -5.67,7.18 -2.46,1.801 -5.82,2.66 -10.04,2.66 -7.15,0 -12.54,-2.929 -16.21,-8.871 -3.67,-5.898 -7.07,-15.07 -10.19,-27.57 V 357.34 h -33.48 z m 336.48,-41.8 c 0,-15.622 -6.4,-28.629 -19.21,-39.141 -12.86,-10.469 -30.63,-16.949 -53.36,-19.367 0.89,-8.953 2.5,-16.172 4.84,-21.762 2.34,-5.59 5.2,-9.961 8.52,-13.199 3.35,-3.25 7.18,-5.473 11.56,-6.68 4.33,-1.25 8.87,-1.84 13.51,-1.84 10.71,0 20.75,2.77 30.12,8.36 9.38,5.55 16.95,14.918 22.74,28.089 h 10.7 c -2.89,-8.25 -6.92,-16.14 -12.03,-23.601 -5.12,-7.457 -11.14,-14.02 -18.05,-19.719 -6.91,-5.711 -14.37,-10.199 -22.42,-13.558 -8.01,-3.321 -16.29,-5 -24.77,-5 -7.77,0 -15.31,1.328 -22.54,4.027 -7.26,2.652 -13.67,7.07 -19.25,13.199 -5.59,6.133 -10.08,14.102 -13.56,23.902 -3.44,9.809 -5.16,21.84 -5.16,36.141 0,9.328 1.06,19.488 3.17,30.43 2.11,10.929 5.7,21.051 10.7,30.429 5,9.372 11.6,17.141 19.73,23.399 8.16,6.242 18.24,9.371 30.27,9.371 5.59,0 10.98,-0.629 16.21,-1.84 5.24,-1.211 10,-3.469 14.22,-6.68 4.26,-3.242 7.66,-7.652 10.2,-13.199 2.58,-5.582 3.86,-12.851 3.86,-21.761 z m -72.93,-45.469 c 15.86,2.429 28.4,8.008 37.66,16.719 9.22,8.679 13.87,19.378 13.87,32.109 0,8.48 -1.45,14.531 -4.34,18.211 -2.93,3.672 -7.03,5.539 -12.38,5.539 -5.82,0 -10.9,-2.258 -15.24,-6.719 -4.33,-4.449 -7.96,-10.191 -10.85,-17.219 -2.89,-6.992 -5.08,-14.812 -6.53,-23.402 -1.44,-8.59 -2.19,-16.988 -2.19,-25.238 z m 91.65,133.437 33.47,4.692 v -50.86 h 25.74 v -11.679 h -25.74 V 410.859 c 0,-2.66 0.08,-5.738 0.31,-9.179 0.24,-3.481 0.82,-6.758 1.84,-9.879 1.02,-3.129 2.58,-5.75 4.69,-7.852 2.11,-2.109 5.08,-3.168 8.87,-3.168 6.01,0 11.75,3.008 17.22,9.02 5.47,6.019 9.77,15.16 12.89,27.429 h 12.35 c -3.79,-14.07 -7.86,-25.16 -12.19,-33.281 -4.38,-8.129 -8.87,-14.34 -13.56,-18.558 -4.68,-4.262 -9.29,-6.993 -13.86,-8.2 -4.57,-1.211 -8.75,-1.839 -12.54,-1.839 -8.05,0 -14.61,1.488 -19.77,4.488 -5.12,3.012 -9.14,6.879 -12.03,11.57 -2.89,4.68 -4.88,9.84 -6.01,15.539 -1.1,5.711 -1.68,11.332 -1.68,16.879 v 109.063 h -11.37 v 11.679 h 11.37 z" /></g></g></svg>